<svg xmlns="http://www.w3.org/2000/svg" width="69.093" height="65.281" viewBox="0 0 69.093 65.281">
  <g id="noun_client_3914442" transform="translate(-11.797 -14.639)">
    <path id="Tracé_4007" data-name="Tracé 4007" d="M76.977,43.233a3.972,3.972,0,0,0-2.939,1.324L64,55.812c-.046-.139-.093-.285-.146-.417a23.622,23.622,0,1,0-32.136.357l-6.455,2.893-.371-.775a2.966,2.966,0,0,0-3.972-1.4L13.494,59.99a2.973,2.973,0,0,0-1.4,3.972L18.9,78.229a2.973,2.973,0,0,0,3.972,1.4l7.441-3.555a2.973,2.973,0,0,0,1.4-3.972l-.41-.861,3.4-1.324a4.833,4.833,0,0,1,1.728-.351h26.3a7.455,7.455,0,0,0,6.223-3.31L80.248,49.371a3.972,3.972,0,0,0-3.27-6.137ZM25.3,38.248A22.3,22.3,0,1,1,63.141,54.2a4.634,4.634,0,0,0-1.556-1.218,5.065,5.065,0,0,0,1.986-5.872l-2.88-8.289a5.065,5.065,0,0,0-4.773-3.39H52.131a8.527,8.527,0,1,0-9.083,0H39.254a5.058,5.058,0,0,0-4.767,3.39L31.6,47.113a5.018,5.018,0,0,0,.662,4.588,4.965,4.965,0,0,0,3.76,2.1l-2.959,1.324A22.245,22.245,0,0,1,25.3,38.248ZM36.367,52.5a3.721,3.721,0,0,1-3.515-4.952l2.913-8.289a3.727,3.727,0,0,1,3.515-2.5h.755L42.187,43.7a.662.662,0,0,0,.867.417L46.49,42.79,44.683,47.94a2.9,2.9,0,0,0,.351,2.562l1.324,1.986h-9.99ZM40.4,28.238a7.2,7.2,0,1,1,14.4,0,6.985,6.985,0,0,1-.43,2.423,6.084,6.084,0,0,1-2.787-4.528.662.662,0,0,0-1.192-.344c-1.986,2.688-6.117,3.218-9.931,3.588A6.654,6.654,0,0,1,40.4,28.238Zm10.123-.609a7.706,7.706,0,0,0,3.31,4.244,7.183,7.183,0,0,1-12.963-1.185c3.462-.351,7.23-.854,9.639-3.059Zm-.477,9.13L47.6,40.446l-2.45-3.688Zm1.589,0h2.138l-1.834,5.866L48.6,41.3Zm-8.07,0,3.019,4.6-3.343,1.324L41.4,36.818ZM47.6,43.644l1.655,4.727a1.562,1.562,0,0,1-.179,1.4l-1.49,2.185-1.483-2.185a1.609,1.609,0,0,1-.179-1.4ZM50.178,50.5a2.9,2.9,0,0,0,.331-2.569L48.7,42.783l3.429,1.324a.662.662,0,0,0,.847-.41l2.185-6.938h.755a3.741,3.741,0,0,1,3.522,2.5l2.887,8.289A3.727,3.727,0,0,1,58.811,52.5H48.827ZM29.74,74.872,22.3,78.434a1.655,1.655,0,0,1-2.2-.781L13.256,63.386a1.655,1.655,0,0,1,.808-2.165L21.5,57.666a1.7,1.7,0,0,1,.708-.159,1.655,1.655,0,0,1,1.5.94l6.1,12.7h0l.735,1.543a1.655,1.655,0,0,1-.8,2.178Zm49.408-26.23L67.854,65.511a6.144,6.144,0,0,1-5.124,2.728h-26.3a6.27,6.27,0,0,0-2.238.424L30.7,70.04,25.834,59.8l7.362-3.31h0l5.058-2.264a4.74,4.74,0,0,1,1.986-.41H59.546a3.35,3.35,0,0,1,2.926,1.721,3.2,3.2,0,0,1,.437,1.635,3.343,3.343,0,0,1-3.363,3.383H50.171a.662.662,0,0,0,0,1.324h9.375A4.634,4.634,0,0,0,64.18,57.56L75.024,45.431a2.648,2.648,0,0,1,4.125,3.211Z" fill="#2A95D1"/>
    <path id="Tracé_4008" data-name="Tracé 4008" d="M26.15,82.39a3.48,3.48,0,1,0,3.48,3.48A3.48,3.48,0,0,0,26.15,82.39Zm0,5a1.445,1.445,0,1,0,0-.05Z" transform="translate(0 -24.636)" fill="#2A95D1"/>
  </g>
</svg>
